#!OML:ASF H:\MichaelJackson\Top Level 1\Subject 1\Session 1\male.ASF
:FULLY-SPECIFIED
:DEGREES
319
root 6.05775 15.3871 5.24141 -14.9648 4.63826 -12.3079
lowerback 10.5122 1.82546 -1.6858
upperback 3.68684 2.419 4.91643
thorax -2.32706 1.19814 5.79279
lowerneck -8.57581 -5.18662 2.62803
upperneck 13.1733 -7.87048 3.2686
head 5.42049 -3.48332 0.0297325
rclavicle 1.50952e-014 2.14687e-014
rhumerus -30.3015 5.98938 -55.7136
rradius 92.282
rwrist 1.37351
rhand -10.8898 -11.849
rfingers 7.12502
rthumb 15.1266 -41.2763
lclavicle 1.50952e-014 2.14687e-014
lhumerus -55.6876 -4.81331 86.0107
lradius 60.1843
lwrist 29.4332
lhand -20.4582 9.11463
lfingers 7.12502
lthumb 5.89746 39.0126
rfemur -17.5438 2.38896 -7.3503
rtibia 81.392
rfoot 37.2026 20.8257
rtoes -15.594
lfemur -33.1053 23.625 -9.15287
ltibia 55.7423
lfoot -14.5909 14.7859
ltoes 42.2718
320
root 6.16701 15.4145 5.36554 -16.0457 4.80019 -11.4724
lowerback 11.5132 1.62782 -1.79106
upperback 4.07287 2.13039 4.70174
thorax -2.43429 1.04794 5.65014
lowerneck -8.50699 -5.05736 2.70685
upperneck 13.4101 -7.67834 3.01201
head 5.46798 -3.3978 -0.0497757
rclavicle -2.38045e-014 -2.8625e-014
rhumerus -31.054 5.55885 -55.0566
rradius 91.2297
rwrist 13.2266
rhand -15.1722 -13.5718
rfingers 7.12502
rthumb 10.9987 -43.2637
lclavicle -2.38045e-014 -2.8625e-014
lhumerus -55.987 -4.33501 86.509
lradius 59.6725
lwrist 29.0896
lhand -20.778 8.98608
lfingers 7.12502
lthumb 5.58866 38.8924
rfemur -20.4129 4.68532 -9.55484
rtibia 80.0408
rfoot 35.3667 16.8646
rtoes -3.80258
lfemur -30.978 23.1197 -9.62842
ltibia 55.7216
lfoot -15.3986 14.8173
ltoes 42.1887
321
root 6.27679 15.442 5.48312 -17.0344 5.04837 -10.6737
lowerback 12.5416 1.37899 -1.83627
upperback 4.43766 1.77943 4.48952
thorax -2.56758 0.867936 5.49103
lowerneck -8.45826 -4.90863 2.8119
upperneck 13.4916 -7.45493 2.75108
head 5.46991 -3.30055 -0.13074
rclavicle -1.09332e-015 2.38542e-015
rhumerus -31.8123 4.97525 -54.2973
rradius 90.3739
rwrist 25.3103
rhand -17.8226 -16.6641
rfingers 7.12502
rthumb 8.44149 -46.4754
lclavicle -1.09332e-015 2.38542e-015
lhumerus -56.2312 -3.98874 87.1207
lradius 59.1998
lwrist 28.9912
lhand -20.9689 8.89937
lfingers 7.12502
lthumb 5.40437 38.8105
rfemur -23.1527 6.27643 -11.7317
rtibia 77.6252
rfoot 31.4609 13.2229
rtoes 5.56735
lfemur -28.9997 22.5584 -10.1993
ltibia 55.6227
lfoot -16.1416 14.8619
ltoes 42.1715
322
root 6.3861 15.4692 5.59473 -17.8613 5.35527 -9.89235
lowerback 13.5284 1.104 -1.85707
upperback 4.76827 1.39706 4.28546
thorax -2.70847 0.673586 5.33958
lowerneck -8.45866 -4.74511 2.93373
upperneck 13.4257 -7.20593 2.47143
head 5.43363 -3.1949 -0.217492
rclavicle -6.08157e-015 -2.06736e-014
rhumerus -32.6039 4.30009 -53.4758
rradius 89.9412
rwrist 36.1508
rhand -18.693 -20.423
rfingers 7.12502
rthumb 7.60147 -50.2664
lclavicle -6.08157e-015 -2.06736e-014
lhumerus -56.4069 -3.78045 87.8441
lradius 58.7945
lwrist 29.1021
lhand -20.9882 8.92783
lfingers 7.12502
lthumb 5.38576 38.8394
rfemur -25.7852 7.14238 -13.8018
rtibia 74.1809
rfoot 25.8489 9.20049
rtoes 16.8776
lfemur -27.2457 21.9586 -10.8986
ltibia 55.4667
lfoot -16.8356 14.9544
ltoes 42.2109
323
root 6.49381 15.4956 5.70157 -18.4716 5.65417 -9.1106
lowerback 14.4073 0.837127 -1.87688
upperback 5.0556 1.02681 4.09697
thorax -2.83686 0.486335 5.21001
lowerneck -8.51646 -4.57334 3.05839
upperneck 13.2272 -6.93981 2.16791
head 5.36579 -3.08525 -0.310461
rclavicle -1.60363e-014 -1.86858e-014
rhumerus -33.4533 3.63817 -52.6776
rradius 89.9929
rwrist 44.4606
rhand -18.2624 -23.8355
rfingers 7.12502
rthumb 8.01709 -53.6635
lclavicle -1.60363e-014 -1.86858e-014
lhumerus -56.5157 -3.70119 88.6658
lradius 58.4733
lwrist 29.3365
lhand -20.773 9.08365
lfingers 7.12502
lthumb 5.59349 38.9898
rfemur -28.3672 7.33327 -15.6677
rtibia 69.8267
rfoot 19.6773 1.00184
rtoes 54.949
lfemur -25.7641 21.3796 -11.7232
ltibia 55.2782
lfoot -17.5013 15.0978
ltoes 42.3097
